<?xml version="1.0" encoding="UTF-8"?>
<svg xmlns="http://www.w3.org/2000/svg" xmlns:xlink="http://www.w3.org/1999/xlink" width="512" height="512" viewBox="0 0 60 59" version="1.1"><!-- Generator: Sketch 51.3 (57544) - http://www.bohemiancoding.com/sketch --><title>006 - Family Tree</title><desc>Created with Sketch.</desc><defs/><g id="Page-1" stroke="none" stroke-width="1" fill="none" fill-rule="evenodd"><g id="006---Family-Tree" fill-rule="nonzero"><circle id="Oval" fill="#3D324C" cx="11" cy="38" r="8"/><circle id="Oval" fill="#285680" cx="9" cy="18" r="8"/><circle id="Oval" fill="#E57E25" cx="49" cy="38" r="8"/><circle id="Oval" fill="#802D40" cx="51" cy="18" r="8"/><circle id="Oval" fill="#4C8056" cx="30" cy="9" r="8"/><path d="M16.81,43.5 C16.2999162,41.5349374 14.8334961,39.9594759 12.91,39.31 L9.09,39.31 C7.16650386,39.9594759 5.70008384,41.5349374 5.19,43.5 L11,46.5833 L16.81,43.5 Z" id="Shape" fill="#C03A2B"/><circle id="Oval" fill="#FDD7AD" cx="11" cy="37" r="3"/><path d="M14.81,23.5 C14.2999162,21.5349374 12.8334961,19.9594759 10.91,19.31 L7.09,19.31 C5.16650386,19.9594759 3.70008384,21.5349374 3.19,23.5 L9,26.6667 L14.81,23.5 Z" id="Shape" fill="#C03A2B"/><circle id="Oval" fill="#FDD7AD" cx="9" cy="17" r="3"/><path d="M43.19,43.5 C43.7000838,41.5349374 45.1665039,39.9594759 47.09,39.31 L50.91,39.31 C52.8334961,39.9594759 54.2999162,41.5349374 54.81,43.5 L49,46.7083 L43.19,43.5 Z" id="Shape" fill="#C03A2B"/><circle id="Oval" fill="#FDD7AD" cx="49" cy="37" r="3"/><path d="M45.19,23.5 C45.7000838,21.5349374 47.1665039,19.9594759 49.09,19.31 L52.91,19.31 C54.8334961,19.9594759 56.2999162,21.5349374 56.81,23.5 L51,26.4583 L45.19,23.5 Z" id="Shape" fill="#C03A2B"/><circle id="Oval" fill="#FDD7AD" cx="51" cy="17" r="3"/><path d="M35.81,14.5 C35.2999162,12.5349374 33.8334961,10.9594759 31.91,10.31 L28.09,10.31 C26.1665039,10.9594759 24.7000838,12.5349374 24.19,14.5 L29.8333,17.4583 L35.81,14.5 Z" id="Shape" fill="#C03A2B"/><circle id="Oval" fill="#FDD7AD" cx="30" cy="8" r="3"/><path d="M41,39 L42,34 C41.52,34.2048 41.0081,34.4056 40.485,34.6 C38.584093,35.2713878 36.5858468,35.6261061 34.57,35.65 C34.55,35.65 34.52,35.64 34.5,35.64 C33.7406752,35.5496437 33.0581679,35.1335697 32.63,34.5 C32.0670616,33.6061744 32.1437705,32.4515032 32.82,31.64 C33.2493626,31.1357983 33.7596723,30.7065975 34.33,30.37 C37.74,28.18 41.63,26.28 45.82,24.09 L43.29,20.13 C43.2039,20.1922 43.0938,20.272 42.9964,20.3428 C40.6953,21.9335 35.959,25 34,25 C33.7411536,25.0051705 33.4879127,24.924274 33.28,24.77 C31.65,23.59 32.59,18.07 32.91,16.45 L27.09,16.45 C27.45,18.27 28.59,25 26,25 C25.5642031,24.9880576 25.132693,24.9105206 24.72,24.77 C22.11,23.97 18.28,21.28 16.71,20.13 L16.08,21.11 L14.18,24.09 C18.37,26.28 22.26,28.18 25.67,30.37 C26.2403277,30.7065975 26.7506374,31.1357983 27.18,31.64 C27.8562295,32.4515032 27.9329384,33.6061744 27.37,34.5 C26.9270695,35.1533339 26.2157521,35.5749911 25.43,35.65 C24.7887364,35.7266311 24.140435,35.723272 23.5,35.64 C21.5998862,35.349243 19.7490544,34.7973586 18,34 L18.17,34.84 L19,39 C27,39 27,43 27,43 L27,51 C27,51 27,55 23,55 C20.7685135,55.0286414 18.8062105,56.4832438 18.13,58.61 C18.04,58.85 18,59 18,59 C20.141911,58.5481469 22.3146534,58.2573337 24.5,58.13 C26.012383,58.0126862 27.5337208,58.151297 29,58.54 C29.3536676,58.6445856 29.6904504,58.7995057 30,59 C31.0736618,58.4169846 32.2783203,58.117541 33.5,58.13 C35.6339876,58.0787365 37.7677917,58.2395255 39.87,58.61 C41.14,58.81 42,59 42,59 C42,59 41,55 37,55 C33,55 33,51 33,51 L33,43 C33,43 33,39 41,39 Z" id="Shape" fill="#CB8252"/><path d="M11,47 C6.02943725,47 2,42.9705627 2,38 C2,33.0294373 6.02943725,29 11,29 C15.9705627,29 20,33.0294373 20,38 C19.9944889,42.9682782 15.9682782,46.9944889 11,47 Z M11,31 C7.13400675,31 4,34.1340068 4,38 C4,41.8659932 7.13400675,45 11,45 C14.8659932,45 18,41.8659932 18,38 C17.9955364,34.1358572 14.8641428,31.0044636 11,31 Z" id="Shape" fill="#7D6599"/><path d="M9,27 C4.02943725,27 6.08718376e-16,22.9705627 0,18 C-6.08718376e-16,13.0294373 4.02943725,9 9,9 C13.9705627,9 18,13.0294373 18,18 C17.9944889,22.9682782 13.9682782,26.9944889 9,27 Z M9,11 C5.13400675,11 2,14.1340068 2,18 C2,21.8659932 5.13400675,25 9,25 C12.8659932,25 16,21.8659932 16,18 C15.9955364,14.1358572 12.8641428,11.0044636 9,11 Z" id="Shape" fill="#4482C3"/><path d="M49,47 C44.0294373,47 40,42.9705627 40,38 C40,33.0294373 44.0294373,29 49,29 C53.9705627,29 58,33.0294373 58,38 C57.9944889,42.9682782 53.9682782,46.9944889 49,47 Z M49,31 C45.1340068,31 42,34.1340068 42,38 C42,41.8659932 45.1340068,45 49,45 C52.8659932,45 56,41.8659932 56,38 C55.9955364,34.1358572 52.8641428,31.0044636 49,31 Z" id="Shape" fill="#F0C419"/><path d="M51,27 C46.0294373,27 42,22.9705627 42,18 C42,13.0294373 46.0294373,9 51,9 C55.9705627,9 60,13.0294373 60,18 C59.9944889,22.9682782 55.9682782,26.9944889 51,27 Z M51,11 C48.1687643,11 45.6163103,12.7054952 44.5328433,15.321216 C43.4493763,17.9369367 44.0482666,20.9477615 46.0502525,22.9497475 C48.0522385,24.9517334 51.0630633,25.5506237 53.678784,24.4671567 C56.2945048,23.3836897 58,20.8312357 58,18 C57.9955364,14.1358572 54.8641428,11.0044636 51,11 Z" id="Shape" fill="#D75E72"/><path d="M30,18 C25.0294373,18 21,13.9705627 21,9 C21,4.02943725 25.0294373,9.13077564e-16 30,0 C34.9705627,-9.13077564e-16 39,4.02943725 39,9 C38.9944889,13.9682782 34.9682782,17.9944889 30,18 Z M30,2 C26.1340068,2 23,5.13400675 23,9 C23,12.8659932 26.1340068,16 30,16 C33.8659932,16 37,12.8659932 37,9 C36.9955364,5.13585715 33.8641428,2.00446362 30,2 Z" id="Shape" fill="#71C285"/></g></g></svg>
